External Loads File
version=1
nRows=94
nColumns=13
Range=5.000000e-03-10 seconds
endheader
time 	forceRightX 	forceRightY 	forceRightZ 	pointRightX 	pointRightY 	pointRightZ 	forceLeftX 	forceLeftY 	forceLeftZ 	pointLeftX 	pointLeftY 	pointLeftZ 		
0.005000 46.919551 118.972632 -0.000000 0.144892 0.266566 -0.124311 -43.972567 79.293530 -0.000000 0.460572 0.380915 -0.366362
0.010000 47.692735 119.206413 -0.000000 0.145178 0.265663 -0.124331 -44.965520 78.913566 -0.000000 0.460333 0.381885 -0.366357
0.015000 48.415551 119.436308 -0.000000 0.145360 0.264728 -0.124362 -45.819879 78.538068 -0.000000 0.460088 0.382827 -0.366347
0.020000 49.062124 119.669835 -0.000000 0.145648 0.263802 -0.124333 -46.484038 78.171423 -0.000000 0.459851 0.383732 -0.366342
0.025000 49.562176 119.934548 -0.000000 0.145933 0.263194 -0.124310 -46.982128 77.797403 -0.000000 0.459426 0.385026 -0.366470
0.030000 50.010006 120.183352 -0.000000 0.146216 0.262253 -0.124237 -47.259851 77.461856 -0.000000 0.459236 0.385864 -0.366425
0.035000 50.300282 120.455291 -0.000000 0.146496 0.261412 -0.124213 -47.420678 77.121985 -0.000000 0.458956 0.386830 -0.366421
0.040000 50.488361 120.744578 -0.000000 0.146861 0.260485 -0.124199 -47.497718 76.780138 -0.000000 0.458690 0.387639 -0.366390
0.045000 50.579804 121.084113 -0.000000 0.147168 0.259651 -0.124195 -47.566787 76.409759 -0.000000 0.458415 0.388659 -0.366391
0.050000 50.705660 121.449059 -0.000000 0.147514 0.258744 -0.124135 -47.601173 76.040023 -0.000000 0.458122 0.389432 -0.366371
0.055000 50.763731 121.887482 -0.000000 0.147870 0.257855 -0.124161 -47.688514 75.624578 -0.000000 0.457836 0.390433 -0.366380
0.060000 50.872639 122.331968 -0.000000 0.148214 0.256963 -0.124129 -47.756375 75.223512 -0.000000 0.457546 0.391235 -0.366367
0.065000 50.890466 122.823107 -0.000000 0.148563 0.256096 -0.124089 -47.885015 74.810135 -0.000000 0.457238 0.392206 -0.366363
0.070000 50.916330 123.321439 -0.000000 0.148897 0.255236 -0.124107 -48.004144 74.453512 -0.000000 0.456910 0.393019 -0.366367
0.075000 50.866624 123.872664 -0.000000 0.149258 0.254417 -0.124083 -48.148886 74.145314 -0.000000 0.456583 0.393976 -0.366356
0.080000 50.814119 124.434859 -0.000000 0.149614 0.253529 -0.124106 -48.244830 73.937356 -0.000000 0.456280 0.394737 -0.366339
0.085000 50.667296 125.002252 -0.000000 0.149935 0.252701 -0.124087 -48.305652 73.821485 -0.000000 0.455961 0.395588 -0.366347
0.090000 50.430533 125.531805 -0.000000 0.150263 0.251911 -0.124084 -48.302402 73.820895 -0.000000 0.455634 0.396389 -0.366346
0.095000 50.053654 126.040661 -0.000000 0.150613 0.251069 -0.124108 -48.275684 73.915195 -0.000000 0.455284 0.397224 -0.366332
0.100000 49.653214 126.523283 -0.000000 0.150937 0.250266 -0.124078 -48.209547 74.117649 -0.000000 0.454907 0.398043 -0.366348
0.105000 49.305418 127.015362 -0.000000 0.151308 0.249457 -0.124070 -48.141906 74.401027 -0.000000 0.454586 0.398838 -0.366330
0.110000 49.103388 127.544634 -0.000000 0.151599 0.248666 -0.124040 -48.108405 74.729535 -0.000000 0.454263 0.399632 -0.366353
0.115000 49.135872 128.121405 -0.000000 0.151916 0.247969 -0.124064 -48.131501 75.056447 -0.000000 0.454052 0.400382 -0.366258
0.120000 49.311013 128.793446 -0.000000 0.152251 0.247191 -0.124075 -48.297296 75.273356 -0.000000 0.453757 0.401106 -0.366233
0.125000 49.655337 129.525491 -0.000000 0.152550 0.246496 -0.124073 -48.554970 75.353953 -0.000000 0.453443 0.401844 -0.366266
0.130000 50.075828 130.300010 -0.000000 0.152853 0.245787 -0.124091 -48.863769 75.283623 -0.000000 0.453146 0.402586 -0.366259
0.135000 50.538394 131.064947 -0.000000 0.153176 0.245051 -0.124084 -49.131923 75.112228 -0.000000 0.452849 0.403205 -0.366268
0.140000 50.949427 131.794931 -0.000000 0.153488 0.244400 -0.124096 -49.330021 74.874539 -0.000000 0.452577 0.403950 -0.366280
0.145000 51.358798 132.431536 -0.000000 0.153750 0.243803 -0.124040 -49.396563 74.637580 -0.000000 0.452335 0.404581 -0.366263
0.150000 51.640434 133.018925 -0.000000 0.154045 0.243100 -0.124055 -49.412612 74.378480 -0.000000 0.452068 0.405218 -0.366251
0.155000 51.869817 133.547103 -0.000000 0.154342 0.242489 -0.124054 -49.367779 74.138537 -0.000000 0.451803 0.405904 -0.366240
0.160000 52.089788 134.014553 -0.000000 0.154651 0.241919 -0.124062 -49.269877 73.943135 -0.000000 0.451546 0.406462 -0.366220
0.165000 52.181456 134.458330 -0.000000 0.154939 0.241306 -0.124060 -49.190001 73.758149 -0.000000 0.451255 0.407092 -0.366233
0.170000 52.139762 134.853035 -0.000000 0.155215 0.240653 -0.124070 -49.103264 73.594538 -0.000000 0.450968 0.407722 -0.366211
0.175000 52.020482 135.157217 -0.000000 0.155488 0.240146 -0.124077 -48.949096 73.482417 -0.000000 0.450675 0.408285 -0.366192
0.180000 51.732096 135.412503 -0.000000 0.155787 0.239582 -0.124068 -48.780059 73.387055 -0.000000 0.450386 0.408840 -0.366218
0.185000 51.288320 135.647204 -0.000000 0.156092 0.238989 -0.124070 -48.622198 73.300568 -0.000000 0.450095 0.409483 -0.366216
0.190000 50.831696 135.859349 -0.000000 0.156396 0.238421 -0.124063 -48.432601 73.258956 -0.000000 0.449789 0.410002 -0.366195
0.195000 50.383123 136.092023 -0.000000 0.156702 0.237906 -0.124050 -48.210426 73.270799 -0.000000 0.449472 0.410510 -0.366212
0.200000 49.954626 136.374364 -0.000000 0.156973 0.237428 -0.124065 -47.942268 73.359519 -0.000000 0.449159 0.411091 -0.366216
0.205000 49.588634 136.713141 -0.000000 0.157219 0.236918 -0.124079 -47.611271 73.550256 -0.000000 0.448861 0.411626 -0.366195
0.210000 49.320992 137.112935 -0.000000 0.157470 0.236419 -0.124071 -47.231561 73.843895 -0.000000 0.448576 0.412101 -0.366194
0.215000 49.161327 137.571026 -0.000000 0.157760 0.235983 -0.124089 -46.847429 74.222976 -0.000000 0.448276 0.412516 -0.366203
0.220000 49.001205 138.098862 -0.000000 0.158028 0.235511 -0.124067 -46.559499 74.634347 -0.000000 0.447984 0.413080 -0.366206
0.225000 48.937417 138.619010 -0.000000 0.158258 0.235066 -0.124037 -46.331236 75.105305 -0.000000 0.447714 0.413495 -0.366184
0.230000 48.934788 139.111987 -0.000000 0.158494 0.234731 -0.124044 -46.179391 75.624066 -0.000000 0.447467 0.413846 -0.366187
0.235000 48.903977 139.598662 -0.000000 0.158700 0.234305 -0.124042 -46.151165 76.157962 -0.000000 0.447232 0.414175 -0.366206
0.240000 48.912890 140.054187 -0.000000 0.158870 0.234007 -0.124045 -46.209455 76.717496 -0.000000 0.447051 0.414521 -0.366211
0.245000 48.904935 140.499857 -0.000000 0.159051 0.233719 -0.124052 -46.386335 77.253590 -0.000000 0.446870 0.414866 -0.366199
0.250000 48.942283 140.922822 -0.000000 0.159180 0.233463 -0.124045 -46.657250 77.733476 -0.000000 0.446702 0.415146 -0.366188
0.255000 49.043062 141.328659 -0.000000 0.159294 0.233221 -0.124030 -47.016390 78.107003 -0.000000 0.446585 0.415368 -0.366160
0.260000 49.185090 141.727281 -0.000000 0.159403 0.232981 -0.124023 -47.446607 78.342452 -0.000000 0.446472 0.415585 -0.366169
0.265000 49.404362 142.098232 -0.000000 0.159500 0.232798 -0.124041 -47.862726 78.473909 -0.000000 0.446368 0.415754 -0.366165
0.270000 49.653988 142.450163 -0.000000 0.159578 0.232590 -0.124032 -48.218847 78.537221 -0.000000 0.446277 0.415890 -0.366161
0.275000 49.913960 142.782445 -0.000000 0.159648 0.232430 -0.124029 -48.475469 78.581949 -0.000000 0.446201 0.416038 -0.366154
0.280000 50.162013 143.087754 -0.000000 0.159726 0.232335 -0.124035 -48.621432 78.649755 -0.000000 0.446139 0.416145 -0.366155
0.285000 50.330384 143.371976 -0.000000 0.159782 0.232255 -0.124037 -48.691180 78.756338 -0.000000 0.446089 0.416255 -0.366152
0.290000 50.400627 143.630401 -0.000000 0.159818 0.232178 -0.124036 -48.713394 78.918904 -0.000000 0.446041 0.416333 -0.366157
0.295000 50.371433 143.861907 -0.000000 0.159859 0.232133 -0.124048 -48.732607 79.139731 -0.000000 0.445999 0.416379 -0.366160
0.300000 50.237085 144.077303 -0.000000 0.159893 0.232091 -0.124040 -48.807613 79.400287 -0.000000 0.445964 0.416432 -0.366165
0.305000 50.071066 144.270116 -0.000000 0.159897 0.232082 -0.124050 -48.938799 79.702264 -0.000000 0.445934 0.416433 -0.366158
0.310000 49.894525 144.460231 -0.000000 0.159910 0.232094 -0.124052 -49.129418 80.035135 -0.000000 0.445911 0.416423 -0.366154
0.315000 49.763988 144.658138 -0.000000 0.159907 0.232117 -0.124047 -49.353925 80.404365 -0.000000 0.445901 0.416388 -0.366161
0.320000 49.714369 144.872089 -0.000000 0.159895 0.232154 -0.124055 -49.604663 80.808333 -0.000000 0.445902 0.416317 -0.366153
0.325000 49.736610 145.102777 -0.000000 0.159888 0.232222 -0.124047 -49.893580 81.235915 -0.000000 0.445891 0.416239 -0.366168
0.330000 49.833889 145.328719 -0.000000 0.159841 0.232309 -0.124060 -50.205768 81.690711 -0.000000 0.445914 0.416122 -0.366166
0.335000 49.940911 145.552133 -0.000000 0.159792 0.232418 -0.124030 -50.549606 82.158942 -0.000000 0.445928 0.415999 -0.366162
0.340000 50.026044 145.777613 -0.000000 0.159748 0.232556 -0.124026 -50.915834 82.635874 -0.000000 0.445949 0.415876 -0.366171
0.345000 50.093922 146.015191 -0.000000 0.159660 0.232721 -0.124026 -51.284033 83.124290 -0.000000 0.445999 0.415730 -0.366189
0.350000 50.136701 146.293688 -0.000000 0.159580 0.232944 -0.124011 -51.649989 83.619165 -0.000000 0.446060 0.415568 -0.366169
0.355000 50.155792 146.645497 -0.000000 0.159481 0.233132 -0.124038 -52.013986 84.112680 -0.000000 0.446120 0.415357 -0.366167
0.360000 50.216330 147.081327 -0.000000 0.159371 0.233373 -0.124038 -52.345724 84.612057 -0.000000 0.446217 0.415131 -0.366170
0.365000 50.341640 147.623323 -0.000000 0.159265 0.233610 -0.124013 -52.636061 85.109806 -0.000000 0.446318 0.414870 -0.366158
0.370000 50.587390 148.276996 -0.000000 0.159144 0.233839 -0.124024 -52.855890 85.620187 -0.000000 0.446434 0.414558 -0.366171
0.375000 50.957643 149.051638 -0.000000 0.158998 0.234091 -0.124026 -53.013656 86.151905 -0.000000 0.446551 0.414274 -0.366181
0.380000 51.450988 149.932785 -0.000000 0.158862 0.234371 -0.124024 -53.125634 86.718147 -0.000000 0.446681 0.414007 -0.366190
0.385000 52.065712 150.877109 -0.000000 0.158687 0.234692 -0.123976 -53.196485 87.329737 -0.000000 0.446834 0.413740 -0.366213
0.390000 52.725346 151.847515 -0.000000 0.158525 0.234957 -0.123984 -53.252168 87.968727 -0.000000 0.446980 0.413427 -0.366196
0.395000 53.394930 152.788066 -0.000000 0.158364 0.235249 -0.123977 -53.282649 88.633867 -0.000000 0.447107 0.413122 -0.366182
0.400000 54.048926 153.649145 -0.000000 0.158193 0.235583 -0.123996 -53.284958 89.321891 -0.000000 0.447244 0.412812 -0.366197
0.405000 54.608667 154.422524 -0.000000 0.158029 0.235875 -0.124017 -53.316879 89.992495 -0.000000 0.447370 0.412508 -0.366205
0.410000 55.062331 155.105311 -0.000000 0.157866 0.236130 -0.124020 -53.418321 90.614988 -0.000000 0.447503 0.412244 -0.366186
0.415000 55.437588 155.701514 -0.000000 0.157717 0.236388 -0.124010 -53.596661 91.185090 -0.000000 0.447600 0.411981 -0.366191
0.420000 55.747968 156.228551 -0.000000 0.157554 0.236638 -0.124006 -53.832952 91.721777 -0.000000 0.447703 0.411744 -0.366212
0.425000 55.980513 156.715550 -0.000000 0.157439 0.236866 -0.124007 -54.097519 92.242075 -0.000000 0.447789 0.411518 -0.366201
0.430000 56.138968 157.180923 -0.000000 0.157332 0.237039 -0.124024 -54.356946 92.746196 -0.000000 0.447880 0.411301 -0.366222
0.435000 56.230247 157.625467 -0.000000 0.157243 0.237212 -0.124030 -54.589970 93.217730 -0.000000 0.447943 0.411088 -0.366239
0.440000 56.258195 158.036605 -0.000000 0.157176 0.237428 -0.124004 -54.779075 93.645448 -0.000000 0.448002 0.410912 -0.366233
0.445000 56.215197 158.406301 -0.000000 0.157120 0.237599 -0.123999 -54.928217 94.020021 -0.000000 0.448058 0.410741 -0.366230
0.450000 56.103945 158.721979 -0.000000 0.157079 0.237710 -0.123980 -55.062384 94.328639 -0.000000 0.448095 0.410590 -0.366221
0.455000 55.955708 158.949483 -0.000000 0.157039 0.237812 -0.124000 -55.193099 94.567119 -0.000000 0.448133 0.410474 -0.366227
0.460000 55.764486 159.069656 -0.000000 0.157007 0.237886 -0.123988 -55.334018 94.729242 -0.000000 0.448160 0.410377 -0.366229
0.465000 55.548407 159.080030 -0.000000 0.156987 0.237958 -0.123990 -55.472561 94.826737 -0.000000 0.448177 0.410304 -0.366242
0.470000 55.327869 158.996411 -0.000000 0.156967 0.238009 -0.123987 -55.598289 94.874228 -0.000000 0.448189 0.410236 -0.366260
